<svg class="ldi-mvwz4d" width="100%" height="100%" xmlns="http://www.w3.org/2000/svg" xmlns:xlink="http://www.w3.org/1999/xlink" viewBox="0 0 100 100" preserveAspectRatio="xMidYMid"><!--?xml version="1.0" encoding="utf-8"?--><!--Generator: Adobe Illustrator 21.0.0, SVG Export Plug-In . SVG Version: 6.00 Build 0)--><svg version="1.1" id="Layer_1" xmlns="http://www.w3.org/2000/svg" xmlns:xlink="http://www.w3.org/1999/xlink" x="0px" y="0px" viewBox="0 0 100 100" style="transform-origin: 50px 50px 0px;" xml:space="preserve"><g style="transform-origin: 50px 50px 0px;"><g fill="#000000" style="fill: rgb(0, 0, 0); transform-origin: 50px 50px 0px; transform: scale(0.6);"><g style="transform-origin: 50px 50px 0px;"><g fill="#000000" style="fill: rgb(0, 0, 0);"><style type="text/css" style="transform-origin: 50px 50px 0px; animation-duration: 4s; animation-delay: -4s; animation-direction: normal;" class="ld ld-pulse">.st0{fill:url(#SVGID_1_);} .st1{fill:#4C96D1;} .st2{fill:#E8D556;} .st3{fill:#CF375B;} .st4{fill:#3B82C4;} .st5{fill:#236CB5;} .st6{fill:#D8B234;} .st7{fill:#1987C9;} .st8{fill:#2C98D4;} .st9{fill:#459FD1;} .st10{fill:#42B262;} .st11{fill:#000101;} .st12{fill:#653512;} .st13{fill:#15A260;} .st14{fill:#E42C91;} .st15{fill:#4873B8;} .st16{fill:#04A860;} .st17{fill:#FFCF65;} .st18{fill:#F3B41A;} .st19{fill:#DC4E40;} .st20{fill:#3E3E3E;} .st21{fill:#1CB360;} .st22{fill:#4E84C4;} .st23{fill:#87C540;} .st24{fill:#FFFFFF;} .st25{fill:#1E5281;} .st26{fill:#9FC93B;} .st27{fill:#F4811F;} .st28{fill:#4AA847;} .st29{fill:#176CB6;} .st30{fill:#FEFFFF;} .st31{fill:#323232;} .st32{fill:#BA1F24;} .st33{fill:#1B3461;} .st34{fill:#508BC1;} .st35{fill:#E64626;} .st36{fill:#F0A146;} .st37{fill:#79B947;} .st38{fill:#973D97;} .st39{fill:#3CB0E5;} .st40{fill:#F36E29;} .st41{fill:#37926B;} .st42{fill:#99B03F;} .st43{fill:#44B763;} .st44{fill:#65BC45;} .st45{fill:#ED523F;} .st46{fill:#B01E23;} .st47{fill:#9A2C34;} .st48{fill:#B03B7D;} .st49{fill:#EEBE1F;} .st50{fill:#3E489E;} .st51{fill:#CB8A3E;} .st52{fill:#3B8FB4;} .st53{fill:#8CB03E;} .st54{fill:#1D93CF;} .st55{fill:#163760;} .st56{fill:#C42530;} .st57{fill:#D4252D;} .st58{fill:#E76229;} .st59{fill:#D24F4E;} .st60{fill:#ED2123;} .st61{fill:#2C9AD6;} .st62{fill:#F5B51C;} .st63{fill:#E55227;} .st64{fill:#7CB341;} .st65{fill:#9D3538;} .st66{fill:#236F44;} .st67{fill:#672C91;} .st68{fill:#2971B9;} .st69{fill:#C84728;} .st70{fill:#2A5391;} .st71{fill:#5ABA48;} .st72{fill:#42B6DA;} .st73{fill:#F26721;} .st74{fill:#4C4C4C;} .st75{fill:#02603D;} .st76{fill:#D72026;} .st77{fill:#D81F26;} .st78{fill:#F7BB16;} .st79{fill:#EA4434;} .st80{fill:#34A850;} .st81{fill:#547EC0;} .st82{fill:#FFC820;} .st83{fill:#F47C1F;} .st84{fill:url(#SVGID_2_);} .st85{fill:url(#SVGID_3_);} .st86{fill:url(#SVGID_4_);} .st87{fill:url(#SVGID_5_);} .st88{opacity:0.2;fill:#000101;enable-background:new ;} .st89{opacity:0.12;fill:#000101;enable-background:new ;} .st90{opacity:0.25;fill:#FFFFFF;enable-background:new ;} .st91{fill:none;stroke:#E42C91;stroke-width:4;stroke-miterlimit:10;} .st92{fill:none;stroke:#E42C91;stroke-width:4;stroke-linecap:round;stroke-miterlimit:10;} .st93{fill:#F04B4C;} .st94{fill:#472D8B;} .st95{fill:#E4F2FC;} .st96{fill:#7AC144;} .st97{fill:#E44E25;} .st98{fill:#F16729;} .st99{fill:#EBEBEB;} .st100{fill:#31322F;} .st101{fill:#E7EAE8;} .st102{fill:#EDD3B6;} .st103{fill:#CA3B34;} .st104{fill:#324F5E;} .st105{fill:#29221E;} .st106{fill:#7FABBE;} .st107{fill:none;} .st108{fill:#378D69;} .st109{fill:#ED2223;} .st110{fill:#E35F2F;} .st111{fill:#E79979;} .st112{fill:#3786A8;} .st113{fill:#6CBE44;} .st114{fill:#28B04A;} .st115{fill:#1072AB;} .st116{fill:#E7BD38;} .st117{fill:#170908;} .st118{fill:#28A7DA;} .st119{fill:#10354A;} .st120{fill:#674C46;} .st121{fill:#F3DAB9;} .st122{fill:#1B82B5;} .st123{fill:#4EB0D7;} .st124{fill:#F6CC57;} .st125{fill:#11202F;} .st126{fill:#E5BC8D;} .st127{fill:#997256;} .st128{fill:#DD1E26;} .st129{fill:#EE9B27;} .st130{fill:#F16121;} .st131{fill:#4492CF;} .st132{fill:#DF2841;} .st133{fill:#3F77BC;} .st134{fill:#F5C22A;} .st135{fill:#141414;} .st136{fill:#C78A2A;} .st137{fill:#DA972D;} .st138{fill:#F4AE35;} .st139{fill:#1D9045;} .st140{fill:#CC2628;} .st141{fill:#679B62;} .st142{fill:#C13A37;} .st143{fill:#4F5056;} .st144{fill:#EFEFEF;} .st145{fill:#EB8028;} .st146{fill:#174AA0;} .st147{fill:#E92830;} .st148{fill:#F04F4D;}</style><g style="transform-origin: 50px 50px 0px; animation-duration: 4s; animation-delay: -3.66667s; animation-direction: normal;" class="ld ld-pulse"><path class="st141" d="M50.014,90c-1.071,0-2.135-0.281-3.075-0.822l-9.787-5.794c-1.462-0.817-0.748-1.107-0.266-1.273 c1.949-0.682,2.344-0.837,4.425-2.018c0.219-0.125,0.505-0.081,0.729,0.051l7.518,4.461c0.271,0.147,0.657,0.147,0.908,0 l29.315-16.921c0.271-0.154,0.448-0.47,0.448-0.792V33.065c0-0.338-0.176-0.638-0.453-0.807L50.473,15.351 c-0.271-0.161-0.631-0.161-0.903,0L20.273,32.258c-0.284,0.161-0.464,0.477-0.464,0.8v33.828c0,0.323,0.176,0.631,0.455,0.785 l8.028,4.638c4.359,2.179,7.022-0.389,7.022-2.972V35.949c0-0.477,0.374-0.844,0.851-0.844h3.713c0.462,0,0.844,0.367,0.844,0.844 v33.402c0,5.812-3.17,9.15-8.681,9.15c-1.695,0-3.031,0-6.758-1.834l-7.69-4.432c-1.901-1.101-3.075-3.155-3.075-5.349V33.057 c0-2.201,1.174-4.256,3.075-5.342l29.344-16.928c1.856-1.049,4.322-1.049,6.164,0l29.307,16.936 c1.893,1.093,3.075,3.141,3.075,5.342v33.828c0,2.194-1.181,4.241-3.075,5.342L53.1,89.163c-0.939,0.543-2.003,0.822-3.089,0.822" fill="#36f024" style="fill: rgb(54, 240, 36);"></path></g><g style="transform-origin: 50px 50px 0px; animation-duration: 4s; animation-delay: -3.33333s; animation-direction: normal;" class="ld ld-pulse"><path class="st141" d="M59.069,66.691c-12.827,0-15.516-5.888-15.516-10.826c0-0.47,0.379-0.844,0.849-0.844h3.786 c0.418,0,0.77,0.305,0.837,0.718c0.572,3.858,2.275,5.804,10.031,5.804c6.178,0,8.805-1.396,8.805-4.672 c0-1.886-0.748-3.287-10.346-4.227c-8.028-0.792-12.988-2.561-12.988-8.982c0-5.914,4.99-9.437,13.348-9.437 c9.385,0,14.037,3.258,14.624,10.258c0.022,0.242-0.066,0.477-0.227,0.653c-0.161,0.169-0.389,0.271-0.624,0.271h-3.808 c-0.396,0-0.741-0.279-0.822-0.66c-0.917-4.058-3.133-5.357-9.158-5.357c-6.744,0-7.529,2.348-7.529,4.109 c0,2.135,0.925,2.759,10.024,3.962c9.011,1.196,13.289,2.884,13.289,9.216c0,6.384-5.327,10.046-14.617,10.046" fill="#36f024" style="fill: rgb(54, 240, 36);"></path></g><metadata xmlns:d="https://loading.io/stock/" style="transform-origin: 50px 50px 0px; animation-duration: 4s; animation-delay: -3s; animation-direction: normal;" class="ld ld-pulse">
<d:name style="transform-origin: 50px 50px 0px; animation-duration: 4s; animation-delay: -2.66667s; animation-direction: normal;" class="ld ld-pulse">nodejs</d:name>
<d:tags style="transform-origin: 50px 50px 0px; animation-duration: 4s; animation-delay: -2.33333s; animation-direction: normal;" class="ld ld-pulse">nodejs,brand</d:tags>
<d:license style="transform-origin: 50px 50px 0px; animation-duration: 4s; animation-delay: -2s; animation-direction: normal;" class="ld ld-pulse">cc0</d:license>
<d:slug style="transform-origin: 50px 50px 0px; animation-duration: 4s; animation-delay: -1.66667s; animation-direction: normal;" class="ld ld-pulse">mvwz4d</d:slug>
</metadata></g></g></g></g><style type="text/css" style="transform-origin: 50px 50px 0px; animation-duration: 4s; animation-delay: -1.33333s; animation-direction: normal;" class="ld ld-pulse">path,ellipse,circle,rect,polygon,polyline,line { stroke-width: 0; }@keyframes ld-pulse {
  0% {
    -webkit-transform: scale(1.1);
    transform: scale(1.1);
  }
  50% {
    -webkit-transform: scale(0.9);
    transform: scale(0.9);
  }
  51% {
    -webkit-transform: scale(1.1);
    transform: scale(1.1);
  }
  100% {
    -webkit-transform: scale(0.9);
    transform: scale(0.9);
  }
}
@-webkit-keyframes ld-pulse {
  0% {
    -webkit-transform: scale(1.1);
    transform: scale(1.1);
  }
  50% {
    -webkit-transform: scale(0.9);
    transform: scale(0.9);
  }
  51% {
    -webkit-transform: scale(1.1);
    transform: scale(1.1);
  }
  100% {
    -webkit-transform: scale(0.9);
    transform: scale(0.9);
  }
}
.ld.ld-pulse {
  -webkit-animation: ld-pulse 0.8s infinite cubic-bezier(0.215, 0.61, 0.355, 1);
  animation: ld-pulse 0.8s infinite cubic-bezier(0.215, 0.61, 0.355, 1);
}
</style></svg></svg>
