<svg class="ldi-76t8fp" width="100%" height="100%" xmlns="http://www.w3.org/2000/svg" xmlns:xlink="http://www.w3.org/1999/xlink" viewBox="0 0 100 100" preserveAspectRatio="xMidYMid" style="background: rgba(0, 0, 0, 0) none repeat scroll 0% 0%;"><!--?xml version="1.0" encoding="utf-8"?--><!--Generator: Adobe Illustrator 21.0.0, SVG Export Plug-In . SVG Version: 6.00 Build 0)--><svg version="1.1" id="Layer_1" xmlns="http://www.w3.org/2000/svg" xmlns:xlink="http://www.w3.org/1999/xlink" x="0px" y="0px" viewBox="0 0 100 100" style="transform-origin: 50px 50px 0px;" xml:space="preserve"><g style="transform-origin: 50px 50px 0px;"><g fill="#000000" style="fill: rgb(0, 0, 0); transform-origin: 50px 50px 0px; transform: scale(0.6);"><g style="transform-origin: 50px 50px 0px;"><g fill="#000000" style="fill: rgb(0, 0, 0);"><style type="text/css" style="transform-origin: 50px 50px 0px; animation-duration: 4s; animation-delay: 0s; animation-direction: normal;" class="ld ldt-bounce-in">.st0{fill:#333}.st1,.st2{stroke-width:3.5;stroke-miterlimit:10}.st1{fill:url(#SVGID_1_);stroke:#333}.st2{opacity:.5;stroke:#000}.st3{fill:#666766;stroke:#333}.st3,.st4,.st5{stroke-width:3.5;stroke-miterlimit:10}.st4{opacity:.5;stroke-linejoin:round;stroke:#000}.st5{fill:none;stroke:#333;stroke-linecap:round}.st6{opacity:.5}.st7,.st8{stroke:#333;stroke-width:3.5}.st7{stroke-miterlimit:10;fill:none}.st8{fill:#849b87}.st10,.st11,.st8,.st9{stroke-miterlimit:10}.st9{opacity:.2;stroke-width:3.5;stroke-linejoin:round;stroke:#000}.st10,.st11{stroke:#333}.st10{stroke-width:3.5;fill:#e15c64}.st11{fill:#fff}.st11,.st12,.st13{stroke-width:3.5}.st12{opacity:.2;stroke-linecap:round;stroke-linejoin:round;stroke-miterlimit:10;stroke:#000}.st13{fill:#acbd81;stroke:#333}.st13,.st14,.st15,.st16{stroke-miterlimit:10}.st14{fill:#e0e0e0;stroke:#333;stroke-width:5.6375}.st15,.st16{stroke-width:5.638;stroke-linejoin:round}.st15{fill:#f0d848;stroke:#333}.st16{opacity:.2;stroke:#000;stroke-linecap:round}.st17,.st18,.st19{fill:#f4e6c8;stroke:#333;stroke-width:3.5;stroke-miterlimit:10}.st18,.st19{stroke:#fff;stroke-linecap:round}.st19{stroke:#f47e5f}.st20{fill:#acbd81}.st21{fill:#e0e0e0;stroke:#333;stroke-width:3.5;stroke-miterlimit:10}.st22{fill:#b92025}.st23,.st24{fill:none;stroke:#333;stroke-width:9;stroke-linecap:round;stroke-miterlimit:10}.st24{stroke-width:6}.st25{fill:#a0c8d7}.st26{opacity:.2}.st27,.st28{stroke-width:3.5}.st27{opacity:.2;stroke:#000;stroke-miterlimit:10}.st28{fill-rule:evenodd;clip-rule:evenodd;fill:#ffdc6e}.st28,.st29,.st30{stroke:#333;stroke-miterlimit:10}.st29{stroke-linecap:round;fill:none;stroke-width:2.8104}.st30{fill:#fff;stroke-width:3.7002}.st31,.st32{fill-rule:evenodd;clip-rule:evenodd;stroke-width:3.5}.st31{fill:none;stroke-linecap:round;stroke-miterlimit:10;stroke:#fff}.st32{opacity:.2;stroke:#000;stroke-linejoin:round}.st32,.st33,.st34,.st35{stroke-miterlimit:10}.st33{fill:#849b87;stroke:#333;stroke-width:3.7002}.st34,.st35{stroke-width:3.7}.st34{fill:#849b87;stroke-linecap:round;stroke:#fff}.st35{opacity:.2;stroke:#000}.st36{fill:#e0e0e0}.st37{fill:#fff}.st38,.st39{fill:#acbd81;stroke:#333;stroke-width:3.5;stroke-linecap:round;stroke-linejoin:round;stroke-miterlimit:10}.st39{fill:none}.st40{fill:#f4e6c8}.st41{fill:#acbd81;stroke:#fff;stroke-width:3.5;stroke-linecap:round;stroke-linejoin:round;stroke-miterlimit:10}.st42{fill:#67503b}.st43{fill:#a0c8d7;stroke:#333}.st43,.st44,.st45,.st46,.st47,.st48,.st49{stroke-width:3.5;stroke-miterlimit:10}.st44{stroke-linecap:round;fill:#a0c8d7;stroke:#fff}.st45,.st46,.st47,.st48,.st49{fill:#f47e5f;stroke:#333}.st46,.st47,.st48,.st49{fill:none;stroke:#fff;stroke-linecap:round}.st47,.st48,.st49{fill:#e0e0e0;stroke:#333}.st48,.st49{fill:#fff}.st49{fill:#e0e0e0;stroke:#fff}.st50{fill:#fcdc4f}.st51{fill:#407cae}.st52{fill:none}.st53{fill:#fefefe}.st54{fill:none;stroke:#a0c8d7;stroke-width:3.5;stroke-miterlimit:10}.st55,.st56{stroke-linecap:round}.st55{stroke:#fff;stroke-width:2.5;stroke-miterlimit:10;fill:none}.st56{fill:#f4e6c8}.st56,.st57,.st58{stroke:#333;stroke-width:3.5;stroke-miterlimit:10}.st57{stroke-linecap:round;fill:#f47e5f}.st58{fill:#f7b26a}.st59{fill:#849b87}.st60{fill:#e15c64}.st61,.st62,.st63,.st64{fill:none;stroke:#fff;stroke-width:2.1185;stroke-miterlimit:10}.st62,.st63,.st64{stroke-width:2.3545}.st63,.st64{fill:#fff}.st64{fill:#f4e6c8;stroke:#333;stroke-width:5.6375}.st65{fill:#c33837;stroke:#333;stroke-width:5.638;stroke-linecap:round;stroke-linejoin:round}.st65,.st66,.st67,.st68{stroke-miterlimit:10}.st66{opacity:.2;stroke:#000;stroke-linejoin:round;stroke-width:5.638}.st67,.st68{stroke-width:3.5}.st67{fill:#f47e5f;stroke-linecap:round;stroke:#fff}.st68{stroke:#333}.st69{fill:#070404}.st70{fill:#c42026}.st71{fill:#010101}.st72{opacity:.4}.st73{fill:#666766}.st74,.st75,.st76,.st77{fill:none;stroke-miterlimit:10}.st74{stroke:#fff;stroke-linecap:round;stroke-width:3}.st75,.st76,.st77{stroke-width:3.5}.st75{stroke-linejoin:round;stroke:#333}.st76,.st77{stroke:#e0e0e0}.st77{stroke:#e15c64}.st78{fill:none;stroke:#77a4bd}.st78,.st79,.st80{stroke-width:3.5;stroke-miterlimit:10}.st79{stroke-linejoin:round;fill:none;stroke:#f4e6c8}.st80{fill:#acbd81;stroke:#fff;stroke-linecap:round}.st81{stroke:#333434;stroke-linejoin:round}.st81,.st82,.st83{fill:#77a4bd;stroke-width:3.5;stroke-miterlimit:10}.st82{stroke-linejoin:round;stroke:#fff}.st83{stroke:#e0e0e0}.st83,.st84,.st85,.st86{stroke-linejoin:round}.st84{fill:none;stroke-width:3.5;stroke-linecap:round;stroke-miterlimit:10;stroke:#e0e0e0}.st85,.st86{stroke:#333}.st85{stroke-width:3.5;stroke-miterlimit:10;fill:#e0e0e0}.st86{fill:#e15c64}.st86,.st87,.st88,.st89,.st90,.st91{stroke-width:3.5;stroke-miterlimit:10}.st87{fill:#f7b26a;stroke-linecap:round;stroke:#fff}.st88,.st89,.st90,.st91{stroke:#000}.st89,.st90,.st91{fill-rule:evenodd;clip-rule:evenodd;fill:#fff;stroke:#333}.st90,.st91{fill:#e0e0e0}.st91{fill:none;stroke:#fff;stroke-linejoin:round}.st91,.st92,.st93{stroke-linecap:round}.st92{stroke-width:3.5;stroke-linejoin:round;stroke-miterlimit:10;fill:none;stroke:#fff}.st93{fill:#67503b;stroke:#333}.st93,.st94,.st95,.st96{stroke-width:3.5;stroke-miterlimit:10}.st94{stroke-linecap:round;fill:#67503b;stroke:#fff}.st95,.st96{fill:#333;stroke:#333}.st96{fill:url(#SVGID_2_)}.st97{fill:#f47e5f}.st98,.st99{stroke-miterlimit:10}.st98{opacity:.2;stroke-width:3.5;stroke-linecap:round;stroke:#000}.st99{fill:#fff;stroke:#333}.st100{opacity:.3}.st101{stroke:#333;stroke-miterlimit:10}.st102{fill:#e6e6e6}</style><g style="transform-origin: 50px 50px 0px;"><g fill="#000000" style="fill: rgb(0, 0, 0);"><g style="transform-origin: 50px 50px 0px; animation-duration: 4s; animation-delay: 0.133333s; animation-direction: normal;" class="ld ldt-bounce-in"><path class="st25" d="M67.871,89.407c-3.858,0-8.565-2.177-13.7-6.406c-6.774-5.579-13.687-14.164-19.465-24.171l0,0 c-5.778-10.008-9.756-20.287-11.201-28.942c-1.54-9.226,0.012-15.693,4.37-18.209c4.357-2.515,10.733-0.627,17.954,5.32 c6.774,5.579,13.687,14.164,19.465,24.171s9.756,20.287,11.201,28.942c1.54,9.226-0.012,15.693-4.37,18.209 C70.866,89.048,69.438,89.407,67.871,89.407z M32.18,14.083c-0.969,0-1.826,0.207-2.555,0.627 c-2.959,1.708-3.932,7.03-2.668,14.602c1.378,8.253,5.206,18.114,10.78,27.769l0,0c5.573,9.654,12.2,17.9,18.658,23.22 c5.926,4.88,11.023,6.7,13.979,4.99c2.959-1.708,3.932-7.03,2.668-14.602c-1.378-8.253-5.206-18.114-10.78-27.769 c-5.573-9.654-12.2-17.9-18.658-23.22C39.139,16.022,35.144,14.083,32.18,14.083z" fill="#00d8ff" style="fill: rgb(0, 216, 255);"></path></g></g></g><g style="transform-origin: 50px 50px 0px;"><g fill="#000000" style="fill: rgb(0, 0, 0);"><g style="transform-origin: 50px 50px 0px; animation-duration: 4s; animation-delay: 0.266667s; animation-direction: normal;" class="ld ldt-bounce-in"><path class="st25" d="M67.871,89.407c-3.858,0-8.565-2.177-13.7-6.406c-6.774-5.579-13.687-14.164-19.465-24.171l0,0 c-5.778-10.008-9.756-20.287-11.201-28.942c-1.54-9.226,0.012-15.693,4.37-18.209c4.357-2.515,10.733-0.627,17.954,5.32 c6.774,5.579,13.687,14.164,19.465,24.171s9.756,20.287,11.201,28.942c1.54,9.226-0.012,15.693-4.37,18.209 C70.866,89.048,69.438,89.407,67.871,89.407z M32.18,14.083c-0.969,0-1.826,0.207-2.555,0.627 c-2.959,1.708-3.932,7.03-2.668,14.602c1.378,8.253,5.206,18.114,10.78,27.769l0,0c5.573,9.654,12.2,17.9,18.658,23.22 c5.926,4.88,11.023,6.7,13.979,4.99c2.959-1.708,3.932-7.03,2.668-14.602c-1.378-8.253-5.206-18.114-10.78-27.769 c-5.573-9.654-12.2-17.9-18.658-23.22C39.139,16.022,35.144,14.083,32.18,14.083z" fill="#00d8ff" style="fill: rgb(0, 216, 255);"></path></g></g></g><g style="transform-origin: 50px 50px 0px; animation-duration: 4s; animation-delay: 0.4s; animation-direction: normal;" class="ld ldt-bounce-in"><path class="st26" d="M76.495,70.112c-1.445-8.656-5.423-18.935-11.201-28.942c-2.76-4.78-5.779-9.229-8.918-13.187l-1.121,4.276 c2.449,3.275,4.811,6.856,7.007,10.661c5.574,9.654,9.402,19.516,10.78,27.769c1.264,7.571,0.291,12.893-2.668,14.602 c-2.956,1.71-8.054-0.11-13.979-4.99c-3.602-2.967-7.257-6.847-10.752-11.372l-1.107,4.222c3.151,3.85,6.408,7.195,9.634,9.852 c5.135,4.229,9.842,6.406,13.7,6.406c1.567,0,2.995-0.359,4.254-1.086C76.483,85.805,78.035,79.338,76.495,70.112z" fill="#30f4b0" style="fill: rgb(48, 244, 176);"></path></g><g style="transform-origin: 50px 50px 0px;"><g fill="#000000" style="fill: rgb(0, 0, 0);"><g style="transform-origin: 50px 50px 0px; animation-duration: 4s; animation-delay: 0.533333s; animation-direction: normal;" class="ld ldt-bounce-in"><path class="st25" d="M32.129,89.407c-1.567,0-2.995-0.359-4.254-1.086c-4.358-2.516-5.91-8.983-4.37-18.209 c1.445-8.656,5.423-18.935,11.201-28.942s12.69-18.592,19.465-24.171c7.22-5.947,13.597-7.834,17.954-5.32 c4.358,2.516,5.91,8.983,4.37,18.209c-1.445,8.656-5.423,18.935-11.201,28.942s-12.69,18.592-19.465,24.171 C40.695,87.23,35.987,89.407,32.129,89.407z M67.82,14.083c-2.964,0-6.958,1.939-11.425,5.618 c-6.458,5.319-13.085,13.565-18.658,23.22c-5.574,9.654-9.402,19.516-10.78,27.769c-1.264,7.571-0.291,12.893,2.668,14.602 c2.958,1.708,8.054-0.11,13.979-4.99c6.458-5.319,13.085-13.565,18.658-23.22l0,0c5.574-9.654,9.402-19.516,10.78-27.769 c1.264-7.571,0.291-12.893-2.668-14.602C69.646,14.29,68.788,14.083,67.82,14.083z" fill="#00d8ff" style="fill: rgb(0, 216, 255);"></path></g></g></g><g style="transform-origin: 50px 50px 0px;"><g fill="#000000" style="fill: rgb(0, 0, 0);"><g style="transform-origin: 50px 50px 0px; animation-duration: 4s; animation-delay: 0.666667s; animation-direction: normal;" class="ld ldt-bounce-in"><path class="st25" d="M32.129,89.407c-1.567,0-2.995-0.359-4.254-1.086c-4.358-2.516-5.91-8.983-4.37-18.209 c1.445-8.656,5.423-18.935,11.201-28.942s12.69-18.592,19.465-24.171c7.22-5.947,13.597-7.834,17.954-5.32 c4.358,2.516,5.91,8.983,4.37,18.209c-1.445,8.656-5.423,18.935-11.201,28.942s-12.69,18.592-19.465,24.171 C40.695,87.23,35.987,89.407,32.129,89.407z M67.82,14.083c-2.964,0-6.958,1.939-11.425,5.618 c-6.458,5.319-13.085,13.565-18.658,23.22c-5.574,9.654-9.402,19.516-10.78,27.769c-1.264,7.571-0.291,12.893,2.668,14.602 c2.958,1.708,8.054-0.11,13.979-4.99c6.458-5.319,13.085-13.565,18.658-23.22l0,0c5.574-9.654,9.402-19.516,10.78-27.769 c1.264-7.571,0.291-12.893-2.668-14.602C69.646,14.29,68.788,14.083,67.82,14.083z" fill="#00d8ff" style="fill: rgb(0, 216, 255);"></path></g></g></g><g style="transform-origin: 50px 50px 0px; animation-duration: 4s; animation-delay: 0.8s; animation-direction: normal;" class="ld ldt-bounce-in"><path class="st26" d="M72.125,11.679c-3.06-1.766-7.12-1.352-11.765,1.106l-1.281,4.888c3.376-2.348,6.387-3.591,8.741-3.591 c0.968,0,1.826,0.207,2.555,0.627c2.959,1.708,3.932,7.03,2.668,14.602c-1.378,8.253-5.206,18.114-10.78,27.769 c-5.573,9.654-12.2,17.9-18.658,23.22c-0.401,0.33-0.797,0.643-1.19,0.945l-1.35,5.15c1.538-0.927,3.126-2.044,4.764-3.393 c6.774-5.579,13.687-14.164,19.465-24.171s9.756-20.287,11.201-28.942C78.035,20.662,76.483,14.195,72.125,11.679z" fill="#30f4b0" style="fill: rgb(48, 244, 176);"></path></g><g style="transform-origin: 50px 50px 0px;"><g fill="#000000" style="fill: rgb(0, 0, 0);"><g style="transform-origin: 50px 50px 0px; animation-duration: 4s; animation-delay: 0.933333s; animation-direction: normal;" class="ld ldt-bounce-in"><path class="st25" d="M50,67.66C25.187,67.66,5.75,59.903,5.75,50S25.187,32.34,50,32.34S94.25,40.097,94.25,50 S74.813,67.66,50,67.66z M50,35.84C30.726,35.84,9.25,41.655,9.25,50S30.726,64.16,50,64.16S90.75,58.345,90.75,50 S69.274,35.84,50,35.84z" fill="#00d8ff" style="fill: rgb(0, 216, 255);"></path></g></g></g><g style="transform-origin: 50px 50px 0px;"><g fill="#000000" style="fill: rgb(0, 0, 0);"><g style="transform-origin: 50px 50px 0px; animation-duration: 4s; animation-delay: 1.06667s; animation-direction: normal;" class="ld ldt-bounce-in"><path class="st25" d="M50,67.66C25.187,67.66,5.75,59.903,5.75,50S25.187,32.34,50,32.34S94.25,40.097,94.25,50 S74.813,67.66,50,67.66z M50,35.84C30.726,35.84,9.25,41.655,9.25,50S30.726,64.16,50,64.16S90.75,58.345,90.75,50 S69.274,35.84,50,35.84z" fill="#00d8ff" style="fill: rgb(0, 216, 255);"></path></g></g></g><g style="transform-origin: 50px 50px 0px;"><g fill="#000000" style="fill: rgb(0, 0, 0);"><g style="transform-origin: 50px 50px 0px; animation-duration: 4s; animation-delay: 1.2s; animation-direction: normal;" class="ld ldt-bounce-in"><circle class="st25" cx="50" cy="50" r="7.951" fill="#00d8ff" style="fill: rgb(0, 216, 255);"></circle></g></g></g><g style="transform-origin: 50px 50px 0px; animation-duration: 4s; animation-delay: 1.33333s; animation-direction: normal;" class="ld ldt-bounce-in"><path class="st55" d="M45.994,46.232c0.744-0.791,1.72-1.362,2.82-1.603" stroke="rgb(255, 255, 255)" style="stroke: rgb(255, 255, 255);"></path></g><g style="transform-origin: 50px 50px 0px; animation-duration: 4s; animation-delay: 1.46667s; animation-direction: normal;" class="ld ldt-bounce-in"><path class="st55" d="M44.662,49.405c-0.007-0.073-0.012-0.147-0.015-0.221" stroke="rgb(255, 255, 255)" style="stroke: rgb(255, 255, 255);"></path></g><g style="transform-origin: 50px 50px 0px; animation-duration: 4s; animation-delay: 1.6s; animation-direction: normal;" class="ld ldt-bounce-in"><path class="st26" d="M52.575,42.483l-4.019,15.33c0.469,0.086,0.95,0.137,1.443,0.137c4.391,0,7.951-3.56,7.951-7.951 C57.951,46.511,55.701,43.555,52.575,42.483z" fill="#30f4b0" style="fill: rgb(48, 244, 176);"></path></g><g style="transform-origin: 50px 50px 0px; animation-duration: 4s; animation-delay: 1.73333s; animation-direction: normal;" class="ld ldt-bounce-in"><path class="st26" d="M55.203,32.46l-0.911,3.477C72.326,36.715,90.75,42.271,90.75,50c0,8.345-21.476,14.16-40.75,14.16 c-1.026,0-2.058-0.02-3.093-0.052l-0.912,3.48c1.319,0.045,2.652,0.072,4.005,0.072c24.813,0,44.25-7.757,44.25-17.66 C94.25,40.801,77.476,33.458,55.203,32.46z" fill="#30f4b0" style="fill: rgb(48, 244, 176);"></path></g><metadata xmlns:d="https://loading.io/stock/" style="transform-origin: 50px 50px 0px; animation-duration: 4s; animation-delay: 1.86667s; animation-direction: normal;" class="ld ldt-bounce-in">
<d:name style="transform-origin: 50px 50px 0px; animation-duration: 4s; animation-delay: 2s; animation-direction: normal;" class="ld ldt-bounce-in">reactjs</d:name>
<d:tags style="transform-origin: 50px 50px 0px; animation-duration: 4s; animation-delay: 2.13333s; animation-direction: normal;" class="ld ldt-bounce-in">reactjs,javascript framework,brand</d:tags>
<d:license style="transform-origin: 50px 50px 0px; animation-duration: 4s; animation-delay: 2.26667s; animation-direction: normal;" class="ld ldt-bounce-in">cc-by</d:license>
<d:slug style="transform-origin: 50px 50px 0px; animation-duration: 4s; animation-delay: 2.4s; animation-direction: normal;" class="ld ldt-bounce-in">76t8fp</d:slug>
</metadata></g></g></g></g><style type="text/css" style="transform-origin: 50px 50px 0px; animation-duration: 4s; animation-delay: 2.53333s; animation-direction: normal;" class="ld ldt-bounce-in">path,ellipse,circle,rect,polygon,polyline,line { stroke-width: 0; }@keyframes ldt-bounce-in {
  0% {
    -webkit-transform: scale(0);
    transform: scale(0);
  }
  5% {
    -webkit-transform: scale(0.0846);
    transform: scale(0.0846);
  }
  6% {
    -webkit-transform: scale(0.191);
    transform: scale(0.191);
  }
  7% {
    -webkit-transform: scale(0.3255);
    transform: scale(0.3255);
  }
  8% {
    -webkit-transform: scale(0.4804);
    transform: scale(0.4804);
  }
  9% {
    -webkit-transform: scale(0.646);
    transform: scale(0.646);
  }
  10% {
    -webkit-transform: scale(0.8116);
    transform: scale(0.8116);
  }
  11% {
    -webkit-transform: scale(0.9665);
    transform: scale(0.9665);
  }
  12% {
    -webkit-transform: scale(1.1);
    transform: scale(1.1);
  }
  13% {
    -webkit-transform: scale(1.2069);
    transform: scale(1.2069);
  }
  14% {
    -webkit-transform: scale(1.2796);
    transform: scale(1.2796);
  }
  19% {
    -webkit-transform: scale(1.1558);
    transform: scale(1.1558);
  }
  20% {
    -webkit-transform: scale(1.07);
    transform: scale(1.07);
  }
  21% {
    -webkit-transform: scale(0.9823);
    transform: scale(0.9823);
  }
  22% {
    -webkit-transform: scale(0.901);
    transform: scale(0.901);
  }
  23% {
    -webkit-transform: scale(0.8328);
    transform: scale(0.8328);
  }
  25% {
    -webkit-transform: scale(0.7551);
    transform: scale(0.7551);
  }
  29% {
    -webkit-transform: scale(0.8516);
    transform: scale(0.8516);
  }
  31% {
    -webkit-transform: scale(0.973);
    transform: scale(0.973);
  }
  33% {
    -webkit-transform: scale(1.0857);
    transform: scale(1.0857);
  }
  35% {
    -webkit-transform: scale(1.1538);
    transform: scale(1.1538);
  }
  40% {
    -webkit-transform: scale(1.0771);
    transform: scale(1.0771);
  }
  42% {
    -webkit-transform: scale(0.9954);
    transform: scale(0.9954);
  }
  45% {
    -webkit-transform: scale(0.9057);
    transform: scale(0.9057);
  }
  52% {
    -webkit-transform: scale(0.9908);
    transform: scale(0.9908);
  }
  56% {
    -webkit-transform: scale(1.0623);
    transform: scale(1.0623);
  }
  64% {
    -webkit-transform: scale(0.9845);
    transform: scale(0.9845);
  }
  100% {
    -webkit-transform: scale(1);
    transform: scale(1);
  }
}
@-webkit-keyframes ldt-bounce-in {
  0% {
    -webkit-transform: scale(0);
    transform: scale(0);
  }
  5% {
    -webkit-transform: scale(0.0846);
    transform: scale(0.0846);
  }
  6% {
    -webkit-transform: scale(0.191);
    transform: scale(0.191);
  }
  7% {
    -webkit-transform: scale(0.3255);
    transform: scale(0.3255);
  }
  8% {
    -webkit-transform: scale(0.4804);
    transform: scale(0.4804);
  }
  9% {
    -webkit-transform: scale(0.646);
    transform: scale(0.646);
  }
  10% {
    -webkit-transform: scale(0.8116);
    transform: scale(0.8116);
  }
  11% {
    -webkit-transform: scale(0.9665);
    transform: scale(0.9665);
  }
  12% {
    -webkit-transform: scale(1.1);
    transform: scale(1.1);
  }
  13% {
    -webkit-transform: scale(1.2069);
    transform: scale(1.2069);
  }
  14% {
    -webkit-transform: scale(1.2796);
    transform: scale(1.2796);
  }
  19% {
    -webkit-transform: scale(1.1558);
    transform: scale(1.1558);
  }
  20% {
    -webkit-transform: scale(1.07);
    transform: scale(1.07);
  }
  21% {
    -webkit-transform: scale(0.9823);
    transform: scale(0.9823);
  }
  22% {
    -webkit-transform: scale(0.901);
    transform: scale(0.901);
  }
  23% {
    -webkit-transform: scale(0.8328);
    transform: scale(0.8328);
  }
  25% {
    -webkit-transform: scale(0.7551);
    transform: scale(0.7551);
  }
  29% {
    -webkit-transform: scale(0.8516);
    transform: scale(0.8516);
  }
  31% {
    -webkit-transform: scale(0.973);
    transform: scale(0.973);
  }
  33% {
    -webkit-transform: scale(1.0857);
    transform: scale(1.0857);
  }
  35% {
    -webkit-transform: scale(1.1538);
    transform: scale(1.1538);
  }
  40% {
    -webkit-transform: scale(1.0771);
    transform: scale(1.0771);
  }
  42% {
    -webkit-transform: scale(0.9954);
    transform: scale(0.9954);
  }
  45% {
    -webkit-transform: scale(0.9057);
    transform: scale(0.9057);
  }
  52% {
    -webkit-transform: scale(0.9908);
    transform: scale(0.9908);
  }
  56% {
    -webkit-transform: scale(1.0623);
    transform: scale(1.0623);
  }
  64% {
    -webkit-transform: scale(0.9845);
    transform: scale(0.9845);
  }
  100% {
    -webkit-transform: scale(1);
    transform: scale(1);
  }
}
.ldt-bounce-in {
  -webkit-transform: scale(0);
  transform: scale(0);
  -webkit-animation: ldt-bounce-in 1s ease-out forwards;
  animation: ldt-bounce-in 1s ease-out forwards;
}
</style></svg></svg>
